<svg xmlns="http://www.w3.org/2000/svg" width="208.10000000000002" height="35" viewBox="0 0 208.10000000000002 35"><rect class="svg__rect" x="0" y="0" width="117.03" height="35" fill="#7A69B3"/><rect class="svg__rect" x="115.03" y="0" width="93.07000000000002" height="35" fill="#5348AC"/><path class="svg__text" d="M17.33 22L14.22 22L14.22 13.47L17.14 13.47Q18.59 13.47 19.34 14.05Q20.10 14.63 20.10 15.78L20.10 15.78Q20.10 16.36 19.78 16.83Q19.47 17.30 18.86 17.56L18.86 17.56Q19.55 17.75 19.93 18.26Q20.31 18.78 20.31 19.51L20.31 19.51Q20.31 20.71 19.53 21.36Q18.76 22 17.33 22L17.33 22ZM15.70 18.15L15.70 20.82L17.35 20.82Q18.04 20.82 18.44 20.47Q18.83 20.13 18.83 19.51L18.83 19.51Q18.83 18.18 17.47 18.15L17.47 18.15L15.70 18.15ZM15.70 14.66L15.70 17.06L17.15 17.06Q17.84 17.06 18.23 16.75Q18.62 16.43 18.62 15.86L18.62 15.86Q18.62 15.23 18.26 14.95Q17.90 14.66 17.14 14.66L17.14 14.66L15.70 14.66ZM24.64 19.16L24.64 19.16L24.64 13.47L26.12 13.47L26.12 19.18Q26.12 20.03 26.55 20.48Q26.98 20.93 27.83 20.93L27.83 20.93Q29.54 20.93 29.54 19.13L29.54 19.13L29.54 13.47L31.02 13.47L31.02 19.17Q31.02 20.53 30.15 21.32Q29.28 22.12 27.83 22.12L27.83 22.12Q26.36 22.12 25.50 21.33Q24.64 20.55 24.64 19.16ZM37.15 22L35.67 22L35.67 13.47L37.15 13.47L37.15 22ZM47.32 22L41.96 22L41.96 13.47L43.44 13.47L43.44 20.82L47.32 20.82L47.32 22ZM53.12 14.66L50.49 14.66L50.49 13.47L57.25 13.47L57.25 14.66L54.59 14.66L54.59 22L53.12 22L53.12 14.66ZM68.37 22L66.40 13.47L67.87 13.47L69.20 19.88L70.82 13.47L72.07 13.47L73.68 19.89L74.99 13.47L76.46 13.47L74.49 22L73.07 22L71.45 15.77L69.79 22L68.37 22ZM82.10 22L80.62 22L80.62 13.47L82.10 13.47L82.10 22ZM88.59 14.66L85.95 14.66L85.95 13.47L92.72 13.47L92.72 14.66L90.06 14.66L90.06 22L88.59 22L88.59 14.66ZM97.96 22L96.48 22L96.48 13.47L97.96 13.47L97.96 17.02L101.77 17.02L101.77 13.47L103.25 13.47L103.25 22L101.77 22L101.77 18.21L97.96 18.21L97.96 22Z" fill="#FFFFFF"/><path class="svg__text" d="M128.79 17.80L128.79 17.80Q128.79 16.54 129.39 15.54Q129.99 14.55 131.04 13.99Q132.09 13.43 133.41 13.43L133.41 13.43Q134.56 13.43 135.48 13.84Q136.41 14.25 137.02 15.02L137.02 15.02L135.51 16.39Q134.70 15.40 133.53 15.40L133.53 15.40Q132.84 15.40 132.31 15.70Q131.78 16 131.48 16.54Q131.19 17.09 131.19 17.80L131.19 17.80Q131.19 18.51 131.48 19.05Q131.78 19.60 132.31 19.90Q132.84 20.20 133.53 20.20L133.53 20.20Q134.70 20.20 135.51 19.22L135.51 19.22L137.02 20.58Q136.41 21.35 135.49 21.76Q134.56 22.17 133.41 22.17L133.41 22.17Q132.09 22.17 131.04 21.61Q129.99 21.05 129.39 20.05Q128.79 19.06 128.79 17.80ZM141.13 17.80L141.13 17.80Q141.13 16.55 141.73 15.55Q142.34 14.56 143.40 14.00Q144.46 13.43 145.79 13.43L145.79 13.43Q147.12 13.43 148.19 14.00Q149.25 14.56 149.86 15.55Q150.46 16.55 150.46 17.80L150.46 17.80Q150.46 19.05 149.86 20.04Q149.25 21.04 148.19 21.60Q147.13 22.17 145.79 22.17L145.79 22.17Q144.46 22.17 143.40 21.60Q142.34 21.04 141.73 20.04Q141.13 19.05 141.13 17.80ZM143.53 17.80L143.53 17.80Q143.53 18.51 143.83 19.05Q144.13 19.60 144.65 19.90Q145.16 20.20 145.79 20.20L145.79 20.20Q146.43 20.20 146.95 19.90Q147.46 19.60 147.76 19.05Q148.06 18.51 148.06 17.80L148.06 17.80Q148.06 17.09 147.76 16.54Q147.46 16 146.95 15.70Q146.43 15.40 145.79 15.40L145.79 15.40Q145.16 15.40 144.64 15.70Q144.13 16 143.83 16.54Q143.53 17.09 143.53 17.80ZM157.57 22L155.19 22L155.19 13.60L161.78 13.60L161.78 15.44L157.57 15.44L157.57 17.28L161.28 17.28L161.28 19.12L157.57 19.12L157.57 22ZM168.76 22L166.38 22L166.38 13.60L172.97 13.60L172.97 15.44L168.76 15.44L168.76 17.28L172.47 17.28L172.47 19.12L168.76 19.12L168.76 22ZM184.31 22L177.56 22L177.56 13.60L184.16 13.60L184.16 15.44L179.92 15.44L179.92 16.85L183.65 16.85L183.65 18.63L179.92 18.63L179.92 20.17L184.31 20.17L184.31 22ZM195.86 22L189.11 22L189.11 13.60L195.70 13.60L195.70 15.44L191.47 15.44L191.47 16.85L195.20 16.85L195.20 18.63L191.47 18.63L191.47 20.17L195.86 20.17L195.86 22Z" fill="#FFFFFF" x="128.03"/></svg>